# xmcd CD database file
#
# Track frame offsets:
#	150
#	20401
#	42383
#	60900
#	79893
#	105195
#	124026
#	140505
#	165386
#
# Disc length: 2456 seconds
#
# Revision: 0
# Processed by: cddbd v1.5.2PL0 Copyright (c) Steve Scherf et al.
# Submitted via: CDex 1.51
#
DISCID=66099609
DTITLE=Kicca and Intrigo - Ssscchh
DYEAR=1900
DGENRE=Jazz
TTITLE0=You can't stop
TTITLE1=Little voice
TTITLE2=Boy
TTITLE3=Ultimo caffè
TTITLE4=Pelle di seta
TTITLE5=Face on mine
TTITLE6=Miss 62
TTITLE7=Tamburo
TTITLE8=Ultimo caffè (version francaise)
EXTD=
EXTT0=
EXTT1=
EXTT2=
EXTT3=
EXTT4=
EXTT5=
EXTT6=
EXTT7=
EXTT8=
PLAYORDER=
